<?xml version="1.0" encoding="UTF-8"?>
<svg width="1750px" height="1750px" viewBox="0 0 1750 1750" version="1.1" xmlns="http://www.w3.org/2000/svg" xmlns:xlink="http://www.w3.org/1999/xlink">
    <!-- Generator: Sketch 47.1 (45422) - http://www.bohemiancoding.com/sketch -->
    <title>logo</title>
    <desc>Created with Sketch.</desc>
    <defs>
        <linearGradient x1="100%" y1="0%" x2="0%" y2="100%" id="linearGradient-1">
            <stop stop-color="#0041FF" offset="0%"></stop>
            <stop stop-color="#AC6DD7" offset="100%"></stop>
        </linearGradient>
        <linearGradient x1="0%" y1="0%" x2="101.999998%" y2="100.999999%" id="linearGradient-2">
            <stop stop-color="#3023AE" offset="0%"></stop>
            <stop stop-color="#C86DD7" offset="100%"></stop>
        </linearGradient>
        <linearGradient x1="-62.9940345%" y1="171.814358%" x2="140.284805%" y2="-120.979373%" id="linearGradient-3">
            <stop stop-color="#3023AE" offset="0%"></stop>
            <stop stop-color="#C86DD7" offset="100%"></stop>
        </linearGradient>
    </defs>
    <g id="Page-1" stroke="none" stroke-width="1" fill="none" fill-rule="evenodd">
        <g id="Group-3" transform="translate(-152.000000, 148.000000)">
            <path d="M573.822732,1197.18345 L727.041397,1284.29062 L727.041397,1284.29062 C738.164462,1290.61425 751.808139,1290.55884 762.879473,1284.14506 L1225.04024,1016.40909 L1225.04024,1016.40909 C1236.15284,1009.97142 1242.99439,998.101334 1242.99439,985.258693 L1242.99439,448.041953 L1242.99439,448.041953 C1242.99439,435.16552 1236.11709,423.269566 1224.95834,416.844247 L762.947856,150.81414 L762.947856,150.81414 C751.837571,144.41673 738.163368,144.41071 727.047453,150.798334 L264.065475,416.845259 L264.065475,416.845259 C252.887207,423.268714 245.997273,435.179387 246.00194,448.071804 L246.196597,985.744481 L246.196597,985.744481 C246.201252,998.601385 253.062188,1010.47991 264.196595,1016.90836 L378.727231,1083.03266 L378.727231,1083.03266 C387.336499,1088.00322 398.345126,1085.05347 403.315689,1076.4442 C404.897744,1073.704 405.729534,1070.59518 405.727227,1067.43107 L405.3465,545.277714 L405.3465,545.277714 C405.337159,532.467618 412.135739,520.617532 423.199181,514.160065 L726.406553,337.185153 L726.406553,337.185153 C737.615955,330.642493 751.479368,330.640209 762.690925,337.179175 L1066.15652,514.170773 L1066.15652,514.170773 C1077.21766,520.622007 1084.01946,532.463189 1084.01946,545.268152 L1084.01946,889.321858 L1084.01946,889.321858 C1084.01946,902.149329 1077.19392,914.007782 1066.10205,920.450945 L762.773676,1096.65149 L762.773676,1096.65149 C751.516419,1103.19073 737.605705,1103.14268 726.39389,1096.52584 L582.76356,1011.75996 L582.76356,1011.75996 C574.2022,1006.70733 563.165879,1009.55172 558.113247,1018.11308 C556.477667,1020.88446 555.614961,1024.04365 555.614961,1027.26168 L555.614961,1165.8875 L555.614961,1165.8875 C555.614961,1178.83465 562.567362,1190.7846 573.822732,1197.18345 Z" id="G-Ring" fill="url(#linearGradient-1)" transform="translate(744.498195, 717.503345) scale(-1, 1) rotate(60.000000) translate(-744.498195, -717.503345) "></path>
            <g id="Gem" transform="translate(520.000000, 587.000000)" fill="url(#linearGradient-2)">
                <polygon id="Triangle" points="70.4132753 0 383.717647 0 288.577373 148.764279"></polygon>
                <polygon id="Triangle-Copy-3" points="288.339579 148.854337 382.419564 0 450.335294 71.0044002"></polygon>
                <polygon id="Triangle-Copy" points="2.52398098 71.7972101 288.57787 148.830952 225.984226 315.145368"></polygon>
                <polygon id="Triangle-Copy-4" points="288.78445 148.890673 70.4144851 0 2.51332801 71.7950095"></polygon>
                <polygon id="Triangle-Copy-2" points="288.447987 148.721267 450.341678 71.002383 225.987804 315.138685"></polygon>
            </g>
            <path d="M1299.05484,981.013272 L1805.15363,980.881634 L1805.15363,980.881634 C1816.15795,980.878772 1825.09733,989.766274 1825.15852,1000.77042 L1825.99835,1151.80086 L1825.99835,1151.80086 C1826.05977,1162.84638 1817.1554,1171.85034 1806.10987,1171.91176 C1806.07431,1171.91196 1806.03875,1171.91206 1806.00318,1171.91207 L1389.70397,1172.00624 L1389.70397,1172.00624 C1382.55705,1172.00785 1375.95241,1168.19566 1372.37894,1162.00624 L1283.47106,1008.01327 L1283.47106,1008.01327 C1278.5005,999.404004 1281.45025,988.395377 1290.05952,983.424814 C1292.79449,981.845778 1295.89677,981.014093 1299.05484,981.013272 Z" id="Hanle" fill="url(#linearGradient-3)" transform="translate(1553.527591, 1076.443935) rotate(750.000000) translate(-1553.527591, -1076.443935) "></path>
        </g>
    </g>
</svg>